<svg width="196" height="52" viewBox="0 0 196 52" fill="none" xmlns="http://www.w3.org/2000/svg">
<g clip-path="url(#clip0_3854_192743)">
<path d="M148.453 25.7195H177.557C178.818 25.7195 179.047 24.6917 179.047 23.4267V23.3002C179.047 22.0352 178.81 21.0074 177.557 21.0074H165.91V18.7303C165.91 17.4653 164.885 16.4375 163.624 16.4375H163.498C162.236 16.4375 161.211 17.4653 161.211 18.7303V21.0074H157.544V18.7303C157.544 17.4653 156.519 16.4375 155.258 16.4375H155.132C153.87 16.4375 152.845 17.4653 152.845 18.7303V21.0074H148.437C147.175 21.0074 146.15 22.0352 146.15 23.3002V23.4267C146.15 24.6917 147.175 25.7195 148.437 25.7195H148.453Z" fill="#00ADB2"/>
<path d="M159.57 0C155.028 0 151.33 3.70807 151.33 8.26212C151.33 12.8162 155.028 16.5242 159.57 16.5242C164.112 16.5242 167.81 12.8162 167.81 8.26212C167.81 3.70807 164.112 0 159.57 0ZM159.57 11.8832C157.583 11.8832 155.959 10.2624 155.959 8.27003C155.959 6.27763 157.575 4.65683 159.57 4.65683C161.565 4.65683 163.174 6.27763 163.174 8.27003C163.174 10.2624 161.557 11.8832 159.57 11.8832Z" fill="#00ADB2"/>
<path d="M159.57 26.6445C155.028 26.6445 151.33 30.3526 151.33 34.9067C151.33 39.4607 155.028 43.1688 159.57 43.1688C164.112 43.1688 167.81 39.4607 167.81 34.9067C167.81 30.3526 164.112 26.6445 159.57 26.6445ZM159.57 38.5278C157.583 38.5278 155.959 36.907 155.959 34.9146C155.959 32.9222 157.575 31.3014 159.57 31.3014C161.565 31.3014 163.174 32.9222 163.174 34.9146C163.174 36.907 161.557 38.5278 159.57 38.5278Z" fill="#00ADB2"/>
<path d="M145.045 12.5156V12.0096C145.045 10.7446 144.02 9.7168 142.759 9.7168H142.632C141.371 9.7168 140.346 10.7446 140.346 12.0096V37.5076C140.346 38.7726 141.371 39.8004 142.632 39.8004H142.759C144.02 39.8004 145.045 38.7726 145.045 37.5076V12.5156Z" fill="#00ADB2"/>
<path d="M129.236 14.5635C124.694 14.5635 120.996 18.2715 120.996 22.8256C120.996 27.3796 124.694 31.0877 129.236 31.0877C133.778 31.0877 137.476 27.3796 137.476 22.8256C137.476 18.2715 133.778 14.5635 129.236 14.5635ZM129.236 26.4388C127.249 26.4388 125.625 24.818 125.625 22.8256C125.625 20.8332 127.241 19.2124 129.236 19.2124C131.231 19.2124 132.84 20.8332 132.84 22.8256C132.84 24.818 131.223 26.4388 129.236 26.4388Z" fill="#00ADB2"/>
<path d="M174.101 8.82373C172.84 8.82373 171.814 9.85155 171.814 11.1166V11.2431C171.814 12.5081 172.84 13.5359 174.101 13.5359H183.074V17.5365C183.074 18.8015 184.099 19.8293 185.361 19.8293H185.558C186.82 19.8293 187.845 18.8015 187.845 17.5365V12.4923C187.845 10.6185 186.315 8.83164 184.438 8.83164H174.109L174.101 8.82373Z" fill="#00ADB2"/>
<path d="M187.088 25.7273C188.349 25.7273 189.374 24.6995 189.374 23.4345V23.308C189.374 22.043 188.349 21.0151 187.088 21.0151H173.502C172.24 21.0151 171.215 22.043 171.215 23.308V23.4345C171.215 24.6995 172.24 25.7273 173.502 25.7273H179.273V29.4275C179.273 30.6925 180.298 31.7203 181.56 31.7203H181.686C182.948 31.7203 183.973 30.6925 183.973 29.4275V25.7273H187.095H187.088Z" fill="#00ADB2"/>
<path d="M177.073 31.0243C177.073 29.7593 176.047 28.7314 174.786 28.7314H174.66C173.398 28.7314 172.373 29.7593 172.373 31.0243V39.0255C172.373 40.2905 173.398 41.3183 174.66 41.3183H193.395C194.656 41.3183 195.681 40.2905 195.681 39.0255V38.899C195.681 37.634 194.656 36.6062 193.395 36.6062H177.073V31.0164V31.0243Z" fill="#00ADB2"/>
<path d="M193.246 7.27402H193.12C191.858 7.27402 190.833 8.30184 190.833 9.56686V26.4073H187.931C186.67 26.4073 185.645 27.4352 185.645 28.7002V28.8267C185.645 30.0917 186.67 31.1195 187.931 31.1195H190.833V33.3807C190.833 34.6457 191.858 35.6736 193.12 35.6736H193.246C194.507 35.6736 195.532 34.6457 195.532 33.3807V9.55895C195.532 8.29394 194.507 7.26611 193.246 7.26611V7.27402Z" fill="#00ADB2"/>
<path d="M105.273 6.38086C100.731 6.38086 97.0332 10.0889 97.0332 14.643C97.0332 19.197 100.731 22.9051 105.273 22.9051C109.815 22.9051 113.513 19.197 113.513 14.643C113.513 10.0889 109.815 6.38086 105.273 6.38086ZM105.273 18.2562C103.286 18.2562 101.662 16.6354 101.662 14.643C101.662 12.6506 103.278 11.0298 105.273 11.0298C107.268 11.0298 108.877 12.6506 108.877 14.643C108.877 16.6354 107.26 18.2562 105.273 18.2562Z" fill="#00ADB2"/>
<path d="M84.9237 23.1737C84.9237 24.5099 86.004 25.601 87.3445 25.601H87.4785C88.8111 25.601 89.8914 24.5178 89.8914 23.1817V13.8443C89.8914 11.6463 88.1014 9.85156 85.9094 9.85156H69.5242C68.1916 9.85156 67.1113 10.9347 67.1113 12.2709V12.4053C67.1113 13.7415 68.1916 14.8246 69.5242 14.8246H84.9237V23.1737Z" fill="#00ADB2"/>
<path d="M61.755 6.52295H61.621C60.2884 6.52295 59.2082 7.60612 59.2082 8.94229V14.2553H56.4089V8.94229C56.4089 7.60612 55.3208 6.52295 53.9961 6.52295H53.8621C52.5295 6.52295 51.4492 7.60612 51.4492 8.94229V25.6246C51.4492 26.9608 52.5295 28.044 53.8621 28.044H53.9961C55.3287 28.044 56.4089 26.9529 56.4089 25.6246V19.2284H59.2082V36.061C59.2082 37.3972 60.2884 38.4803 61.621 38.4803H61.755C63.0876 38.4803 64.1758 37.3893 64.1758 36.061V8.95019C64.1758 7.61402 63.0876 6.53086 61.755 6.53086V6.52295Z" fill="#00ADB2"/>
<path d="M25.6123 21.6161H27.5441C27.5441 21.6161 27.5678 21.6161 27.5757 21.6161H27.6861V24.9525C27.6861 26.2887 28.7742 27.3719 30.0989 27.3719H30.2329C31.5655 27.3719 32.6458 26.2887 32.6458 24.9525V8.9501C32.6458 7.61393 31.5576 6.53076 30.2329 6.53076H30.0989C28.7663 6.53076 27.6861 7.61393 27.6861 8.9501V9.64586H25.6044C24.2718 9.64586 23.1837 10.729 23.1837 12.0652V12.1996C23.1837 13.5358 24.2639 14.619 25.6044 14.619H27.5362C27.5362 14.619 27.5599 14.619 27.5678 14.619H27.6782V16.6588H25.5965C24.2639 16.6588 23.1758 17.742 23.1758 19.0781V19.2125C23.1758 20.5487 24.256 21.6319 25.5965 21.6319L25.6123 21.6161Z" fill="#00ADB2"/>
<path d="M2.41283 14.6113H4.28159V25.0318H2.41283C1.08814 25.0318 0 26.115 0 27.4512V27.5856C0 28.9218 1.08814 30.0049 2.41283 30.0049H19.8152C21.1478 30.0049 22.228 28.9139 22.228 27.5856V27.4512C22.228 26.115 21.1478 25.0318 19.8152 25.0318H17.7335V14.6113H19.8152C21.1478 14.6113 22.228 13.5281 22.228 12.1919V12.0575C22.228 10.7214 21.1478 9.63818 19.8152 9.63818H2.41283C1.08025 9.63818 0 10.7214 0 12.0575V12.1919C0 13.5281 1.08025 14.6113 2.41283 14.6113ZM8.57896 14.6113H13.4519V25.0318H8.57896V14.6113Z" fill="#00ADB2"/>
<path d="M93.723 38.1802H110.502V41.4534C110.502 42.7896 111.583 43.8728 112.915 43.8728H113.12C114.453 43.8728 115.533 42.7896 115.533 41.4534V36.4724C115.486 34.2587 113.869 33.4127 113.869 33.4127L113.806 33.3811V30.598H116.85C118.183 30.598 119.271 29.5149 119.271 28.1708V28.0443C119.271 26.7081 118.183 25.617 116.85 25.617H93.5259C92.1933 25.617 91.1131 26.7002 91.1131 28.0364V28.1708C91.1131 29.507 92.1933 30.5901 93.5259 30.5901H97.5473V33.1992H83.7168V26.8979C83.7168 25.5617 82.6366 24.4785 81.304 24.4785H81.17C79.8374 24.4785 78.7571 25.5617 78.7571 26.8979V33.1992H76.021V26.8979C76.021 25.5617 74.9408 24.4785 73.6082 24.4785H73.4741C72.1416 24.4785 71.0534 25.5696 71.0534 26.9058V33.2071H67.6707C66.3381 33.2071 65.25 34.2982 65.25 35.6344V35.7609C65.25 37.097 66.3381 38.1881 67.6707 38.1881H93.723V38.1802ZM108.768 33.2071H102.507V30.598H108.768V33.2071Z" fill="#00ADB2"/>
<path d="M46.6708 30.0207C44.0293 30.0207 41.4824 30.9932 39.4796 32.7563C40.6623 34.1399 41.5376 35.7607 42.0343 37.4843C43.1225 36.0137 44.8257 35.1519 46.6708 35.1519C49.8721 35.1519 52.4742 37.761 52.4742 40.9631C52.4742 44.1651 49.8721 46.7821 46.6708 46.7821C43.4694 46.7821 41.0251 44.3549 40.8752 41.2477L40.8437 40.9868C40.8437 38.0931 39.7319 35.3654 37.7133 33.3018C36.9327 32.5112 36.0575 31.8471 35.1191 31.3331C34.8589 31.1908 34.5751 31.0564 34.2439 30.9141L34.1808 30.8825C33.8891 30.7639 33.5894 30.6453 33.2346 30.5346L33.0927 30.4872C32.8561 30.416 32.588 30.3449 32.2647 30.2816L32.178 30.2579C32.178 30.2579 32.1307 30.2421 32.1228 30.2421C31.8468 30.1867 31.5708 30.1472 31.2476 30.1077L31.1293 30.0919C31.1293 30.0919 31.0583 30.076 31.0268 30.076C30.6641 30.0365 30.2856 30.0207 29.915 30.0207C23.8908 30.0207 18.9941 34.9305 18.9941 40.971C18.9941 47.0114 23.8908 51.9213 29.915 51.9213C32.5644 51.9213 35.1112 50.9488 37.1062 49.1857C35.9234 47.8021 35.0482 46.1813 34.5514 44.4577C33.4633 45.9203 31.7601 46.79 29.915 46.79C26.7136 46.79 24.1194 44.181 24.1194 40.971C24.1194 37.761 26.7215 35.1598 29.915 35.1598C33.1084 35.1598 35.5686 37.5871 35.7105 40.7022L35.7342 40.9473C35.7342 43.8489 36.8538 46.5766 38.8803 48.6401C39.653 49.4229 40.5204 50.087 41.4587 50.593C41.7584 50.759 42.0738 50.9092 42.3971 51.0437C42.7125 51.1781 43.0279 51.2967 43.3669 51.3994C43.6587 51.4943 43.9504 51.5655 44.321 51.6524L44.4551 51.6841C44.7468 51.7473 45.0464 51.7869 45.3224 51.8185L45.5353 51.8501C45.898 51.8817 46.2765 51.9055 46.6471 51.9055C52.6713 51.9055 57.5679 46.9877 57.5679 40.9552C57.5679 34.9226 52.6713 30.0049 46.6471 30.0049L46.6708 30.0207Z" fill="#1D2088"/>
<path d="M35.3946 26.8423L35.505 26.8897C35.781 27.0083 36.0727 27.0637 36.3645 27.0637C37.2555 27.0637 38.0598 26.5339 38.4067 25.7117L42.0496 17.1254L45.6925 25.7117C46.0395 26.5339 46.8437 27.0637 47.7348 27.0637C48.0265 27.0637 48.3182 27.0004 48.5942 26.8897L48.7046 26.8423C49.8243 26.3679 50.3526 25.0634 49.8716 23.9328L44.218 10.6106C44.147 10.3813 44.0367 10.1757 43.9105 10.0018C43.8947 9.98596 43.8868 9.97015 43.8711 9.95434L43.8238 9.89899C43.7764 9.83574 43.7291 9.77249 43.6661 9.71715C43.2481 9.2823 42.6646 9.0293 42.0654 9.0293H42.0023C41.403 9.0293 40.8195 9.2823 40.4016 9.71715C40.3386 9.7804 40.2912 9.84365 40.236 9.9069C40.2203 9.93062 40.2045 9.94643 40.1966 9.96225C40.1809 9.97806 40.173 9.98596 40.1651 10.0018C40.031 10.1836 39.9285 10.3892 39.8576 10.6106L34.1961 23.9407C33.9674 24.4862 33.9595 25.0871 34.1803 25.6405C34.4011 26.194 34.8269 26.6209 35.3631 26.8502L35.3946 26.8423Z" fill="#00ADB2"/>
<path d="M60.4316 51.8739C60.0531 51.8739 59.8008 51.6209 59.8008 51.2414V47.0352C59.8008 46.7031 60.0531 46.4976 60.3685 46.4976C60.6839 46.4976 60.9362 46.7031 60.9362 47.0352V50.8619H62.9864C63.2545 50.8619 63.4437 51.107 63.4437 51.3679C63.4437 51.6288 63.2623 51.8739 62.9864 51.8739H60.4316Z" fill="#595857"/>
<path d="M66.3376 47.5812V50.8781H66.6451C66.9132 50.8781 67.0709 51.1153 67.0709 51.3762C67.0709 51.6371 66.9132 51.8743 66.6451 51.8743H64.8867C64.6186 51.8743 64.4609 51.6371 64.4609 51.3762C64.4609 51.1153 64.6186 50.8781 64.8867 50.8781H65.1943V47.5812H64.8867C64.6186 47.5812 64.4609 47.344 64.4609 47.0831C64.4609 46.8222 64.6186 46.585 64.8867 46.585H66.6451C66.9132 46.585 67.0709 46.8222 67.0709 47.0831C67.0709 47.344 66.9132 47.5812 66.6451 47.5812H66.3376Z" fill="#595857"/>
<path d="M69.6022 51.4153C69.6022 51.7474 69.3499 51.953 69.0345 51.953C68.7191 51.953 68.4668 51.7474 68.4668 51.4153V47.2092C68.4668 46.8297 68.7191 46.5767 69.0976 46.5767H71.9205C72.1886 46.5767 72.3778 46.8218 72.3778 47.0827C72.3778 47.3436 72.1964 47.5887 71.9205 47.5887H69.6022V48.7193H71.7391C72.0072 48.7193 72.1964 48.9565 72.1964 49.2174C72.1964 49.4783 72.0151 49.7155 71.7391 49.7155H69.6022V51.4153Z" fill="#595857"/>
<path d="M74.7037 48.7193H76.9195C77.1875 48.7193 77.3768 48.9565 77.3768 49.2174C77.3768 49.4783 77.1954 49.7155 76.9195 49.7155H74.7037V50.854H77.1402C77.4083 50.854 77.5976 51.0991 77.5976 51.36C77.5976 51.6209 77.4162 51.866 77.1402 51.866H74.207C73.8285 51.866 73.5762 51.613 73.5762 51.2335V47.2092C73.5762 46.8297 73.8285 46.5767 74.207 46.5767H76.9983C77.2664 46.5767 77.4556 46.8218 77.4556 47.0827C77.4556 47.3436 77.2743 47.5887 76.9983 47.5887H74.6959V48.7193H74.7037Z" fill="#595857"/>
<path d="M79.6152 51.8739C79.2367 51.8739 78.9844 51.6209 78.9844 51.2414V47.0352C78.9844 46.7031 79.2367 46.4976 79.5521 46.4976C79.8675 46.4976 80.1198 46.7031 80.1198 47.0352V50.8619H82.17C82.438 50.8619 82.6273 51.107 82.6273 51.3679C82.6273 51.6288 82.4459 51.8739 82.17 51.8739H79.6152Z" fill="#595857"/>
<path d="M88.3441 49.2174C88.3441 51.0517 87.1219 52.0004 85.7893 52.0004C84.4567 52.0004 83.2188 51.0596 83.2188 49.2174C83.2188 47.3752 84.4488 46.4502 85.7893 46.4502C87.1298 46.4502 88.3441 47.3831 88.3441 49.2174ZM84.3463 49.2174C84.3463 50.3164 85.0008 50.9963 85.7893 50.9963C86.5778 50.9963 87.2165 50.3164 87.2165 49.2174C87.2165 48.1184 86.562 47.4543 85.7893 47.4543C85.0166 47.4543 84.3463 48.1184 84.3463 49.2174Z" fill="#595857"/>
<path d="M93.0682 49.8024V47.0352C93.0682 46.7031 93.3127 46.4976 93.6281 46.4976C93.9435 46.4976 94.1879 46.7031 94.1879 47.0352V51.4311C94.1879 51.7553 93.9198 51.9608 93.636 51.9608C93.4152 51.9608 93.2733 51.8818 93.1708 51.7474L90.8052 48.6481V51.4232C90.8052 51.7553 90.5608 51.9608 90.2454 51.9608C89.93 51.9608 89.6855 51.7553 89.6855 51.4232V47.0431C89.6855 46.711 89.9536 46.5055 90.2375 46.5055C90.4898 46.5055 90.6081 46.5924 90.7185 46.7347L93.084 49.8103L93.0682 49.8024Z" fill="#595857"/>
<path d="M99.4246 49.9291H98.3128C98.0447 49.9291 97.8555 49.6919 97.8555 49.4389C97.8555 49.1859 98.0368 48.9487 98.3128 48.9487H99.9923C100.371 48.9487 100.56 49.1938 100.56 49.51C100.56 50.7434 99.7479 51.9847 98.1236 51.9926C96.6885 51.9926 95.5215 51.0281 95.5215 49.2096C95.5215 47.3911 96.6806 46.4424 98.1078 46.4424C99.0225 46.4424 99.8425 46.8851 100.158 47.4465C100.292 47.6758 100.245 47.992 100.008 48.1422C99.7873 48.2846 99.4561 48.2529 99.2906 48.0316C99.054 47.7311 98.6992 47.4623 98.1078 47.4623C97.3272 47.4623 96.6412 48.0474 96.6412 49.2175C96.6412 50.3876 97.3272 50.9964 98.1236 50.9964C98.8411 50.9964 99.3536 50.5142 99.4246 49.9291Z" fill="#595857"/>
<path d="M105.544 48.7193H107.759C108.027 48.7193 108.217 48.9565 108.217 49.2174C108.217 49.4783 108.035 49.7155 107.759 49.7155H105.544V50.854H107.98C108.248 50.854 108.437 51.0991 108.437 51.36C108.437 51.6209 108.256 51.866 107.98 51.866H105.047C104.668 51.866 104.416 51.613 104.416 51.2335V47.2092C104.416 46.8297 104.668 46.5767 105.047 46.5767H107.838C108.106 46.5767 108.295 46.8218 108.295 47.0827C108.295 47.3436 108.114 47.5887 107.838 47.5887H105.536V48.7193H105.544Z" fill="#595857"/>
<path d="M110.328 51.8743C109.95 51.8743 109.697 51.6213 109.697 51.2418V47.2175C109.697 46.838 109.95 46.585 110.328 46.585H111.613C113.246 46.585 114.105 47.6839 114.105 49.2257C114.105 50.7674 113.246 51.8822 111.613 51.8822H110.336L110.328 51.8743ZM110.825 47.5812V50.8781H111.519C112.575 50.8781 112.977 50.2298 112.977 49.2257C112.977 48.2216 112.583 47.5891 111.519 47.5891H110.825V47.5812Z" fill="#595857"/>
<path d="M119.979 49.8815C119.979 51.3599 118.978 52.0004 117.716 52.0004C116.454 52.0004 115.461 51.352 115.461 49.8815V47.0352C115.461 46.7031 115.713 46.4976 116.029 46.4976C116.344 46.4976 116.596 46.7031 116.596 47.0352V49.8182C116.596 50.6168 117.085 50.9883 117.716 50.9883C118.347 50.9883 118.844 50.6168 118.844 49.8182V47.0352C118.844 46.7031 119.096 46.4976 119.411 46.4976C119.727 46.4976 119.979 46.7031 119.979 47.0352V49.8815Z" fill="#595857"/>
<path d="M121.273 49.2174C121.273 47.4227 122.433 46.4502 123.86 46.4502C124.688 46.4502 125.5 46.8455 125.863 47.5096C125.989 47.7389 125.941 48.071 125.705 48.2291C125.484 48.3714 125.145 48.3635 124.987 48.1184C124.751 47.7547 124.388 47.4701 123.86 47.4701C123.079 47.4701 122.393 48.0552 122.393 49.2253C122.393 50.3955 123.095 50.9963 123.876 50.9963C124.364 50.9963 124.814 50.7275 125.05 50.3322C125.184 50.1108 125.539 50.0792 125.768 50.2215C125.981 50.3638 126.052 50.6801 125.91 50.941C125.555 51.6051 124.735 52.0084 123.876 52.0084C122.448 52.0084 121.273 51.0438 121.273 49.2253V49.2174Z" fill="#595857"/>
<path d="M130.461 50.8702H128.371L128.095 51.5896C127.977 51.8901 127.654 52.0324 127.33 51.9217C127.031 51.8189 126.881 51.5027 126.991 51.2576L128.813 46.9091C128.923 46.6482 129.144 46.5059 129.42 46.5059C129.72 46.5059 129.932 46.6482 130.043 46.9091L131.849 51.2576C131.951 51.5106 131.801 51.8189 131.517 51.9217C131.202 52.0324 130.879 51.8901 130.76 51.5896L130.477 50.8702H130.461ZM128.758 49.8819H130.059L129.404 48.2373L128.75 49.8819H128.758Z" fill="#595857"/>
<path d="M132.502 47.5812C132.234 47.5812 132.045 47.344 132.045 47.0831C132.045 46.8222 132.226 46.585 132.502 46.585H136.106C136.374 46.585 136.563 46.8222 136.563 47.0831C136.563 47.344 136.382 47.5812 136.106 47.5812H134.884V51.4157C134.884 51.7478 134.623 51.9534 134.308 51.9534C133.993 51.9534 133.732 51.7478 133.732 51.4157V47.5812H132.51H132.502Z" fill="#595857"/>
<path d="M139.574 47.5812V50.8781H139.881C140.15 50.8781 140.307 51.1153 140.307 51.3762C140.307 51.6371 140.15 51.8743 139.881 51.8743H138.123C137.855 51.8743 137.697 51.6371 137.697 51.3762C137.697 51.1153 137.855 50.8781 138.123 50.8781H138.431V47.5812H138.123C137.855 47.5812 137.697 47.344 137.697 47.0831C137.697 46.8222 137.855 46.585 138.123 46.585H139.881C140.15 46.585 140.307 46.8222 140.307 47.0831C140.307 47.344 140.15 47.5812 139.881 47.5812H139.574Z" fill="#595857"/>
<path d="M146.545 49.2174C146.545 51.0517 145.323 52.0004 143.99 52.0004C142.658 52.0004 141.42 51.0596 141.42 49.2174C141.42 47.3752 142.65 46.4502 143.99 46.4502C145.331 46.4502 146.545 47.3831 146.545 49.2174ZM142.547 49.2174C142.547 50.3164 143.202 50.9963 143.99 50.9963C144.779 50.9963 145.418 50.3164 145.418 49.2174C145.418 48.1184 144.763 47.4543 143.99 47.4543C143.218 47.4543 142.547 48.1184 142.547 49.2174Z" fill="#595857"/>
<path d="M151.267 49.8024V47.0352C151.267 46.7031 151.512 46.4976 151.827 46.4976C152.143 46.4976 152.387 46.7031 152.387 47.0352V51.4311C152.387 51.7553 152.119 51.9608 151.835 51.9608C151.614 51.9608 151.472 51.8818 151.37 51.7474L149.004 48.6481V51.4232C149.004 51.7553 148.76 51.9608 148.445 51.9608C148.129 51.9608 147.885 51.7553 147.885 51.4232V47.0431C147.885 46.711 148.153 46.5055 148.437 46.5055C148.689 46.5055 148.807 46.5924 148.918 46.7347L151.283 49.8103L151.267 49.8024Z" fill="#595857"/>
<path d="M158.578 50.2374L159.895 46.8851C160.013 46.5846 160.337 46.4423 160.66 46.553C160.959 46.6558 161.109 46.972 160.999 47.2171L159.177 51.5656C159.067 51.8265 158.846 51.9688 158.57 51.9688C158.271 51.9688 158.058 51.8265 157.947 51.5656L156.142 47.2171C156.039 46.9641 156.189 46.6558 156.473 46.553C156.788 46.4423 157.112 46.5846 157.23 46.8851L158.562 50.2374H158.578Z" fill="#595857"/>
<path d="M166.903 49.2174C166.903 51.0517 165.68 52.0004 164.348 52.0004C163.015 52.0004 161.777 51.0596 161.777 49.2174C161.777 47.3752 163.007 46.4502 164.348 46.4502C165.688 46.4502 166.903 47.3831 166.903 49.2174ZM162.905 49.2174C162.905 50.3164 163.559 50.9963 164.348 50.9963C165.136 50.9963 165.775 50.3164 165.775 49.2174C165.775 48.1184 165.121 47.4543 164.348 47.4543C163.575 47.4543 162.905 48.1184 162.905 49.2174Z" fill="#595857"/>
<path d="M172.723 49.8815C172.723 51.3599 171.722 52.0004 170.46 52.0004C169.199 52.0004 168.205 51.352 168.205 49.8815V47.0352C168.205 46.7031 168.457 46.4976 168.773 46.4976C169.088 46.4976 169.341 46.7031 169.341 47.0352V49.8182C169.341 50.6168 169.829 50.9883 170.46 50.9883C171.091 50.9883 171.588 50.6168 171.588 49.8182V47.0352C171.588 46.7031 171.84 46.4976 172.156 46.4976C172.471 46.4976 172.723 46.7031 172.723 47.0352V49.8815Z" fill="#595857"/>
<path d="M174.016 49.2174C174.016 47.4227 175.175 46.4502 176.602 46.4502C177.43 46.4502 178.242 46.8455 178.605 47.5096C178.731 47.7389 178.684 48.071 178.447 48.2291C178.226 48.3714 177.887 48.3635 177.729 48.1184C177.493 47.7547 177.13 47.4701 176.602 47.4701C175.821 47.4701 175.135 48.0552 175.135 49.2253C175.135 50.3955 175.837 50.9963 176.618 50.9963C177.107 50.9963 177.556 50.7275 177.793 50.3322C177.927 50.1108 178.281 50.0792 178.51 50.2215C178.723 50.3638 178.794 50.6801 178.652 50.941C178.297 51.6051 177.477 52.0084 176.618 52.0084C175.191 52.0084 174.016 51.0438 174.016 49.2253V49.2174Z" fill="#595857"/>
<path d="M181.192 51.4153C181.192 51.7474 180.94 51.9529 180.624 51.9529C180.309 51.9529 180.057 51.7474 180.057 51.4153V47.0352C180.057 46.7031 180.309 46.4976 180.624 46.4976C180.94 46.4976 181.192 46.7031 181.192 47.0352V48.6955H183.431V47.0352C183.431 46.7031 183.684 46.4976 183.999 46.4976C184.315 46.4976 184.567 46.7031 184.567 47.0352V51.4153C184.567 51.7474 184.315 51.9529 183.999 51.9529C183.684 51.9529 183.431 51.7474 183.431 51.4153V49.7075H181.192V51.4153Z" fill="#595857"/>
<path d="M187.208 48.7193H189.423C189.691 48.7193 189.881 48.9565 189.881 49.2174C189.881 49.4783 189.699 49.7155 189.423 49.7155H187.208V50.854H189.644C189.912 50.854 190.101 51.0991 190.101 51.36C190.101 51.6209 189.92 51.866 189.644 51.866H186.711C186.332 51.866 186.08 51.613 186.08 51.2335V47.2092C186.08 46.8297 186.332 46.5767 186.711 46.5767H189.502C189.77 46.5767 189.96 46.8218 189.96 47.0827C189.96 47.3436 189.778 47.5887 189.502 47.5887H187.2V48.7193H187.208Z" fill="#595857"/>
<path d="M192.53 51.4153C192.53 51.7474 192.285 51.953 191.97 51.953C191.655 51.953 191.41 51.7474 191.41 51.4153V47.2092C191.41 46.8297 191.662 46.5767 192.041 46.5767H193.823C195.085 46.5767 195.605 47.391 195.605 48.2765C195.605 48.8932 195.353 49.4704 194.777 49.7708L195.589 51.1307C195.739 51.3837 195.684 51.7 195.416 51.866C195.148 52.0241 194.848 51.9609 194.682 51.6763L193.681 49.9764H192.546V51.4074L192.53 51.4153ZM192.53 48.9881H193.72C194.288 48.9881 194.47 48.6639 194.47 48.2844C194.47 47.9049 194.288 47.5808 193.72 47.5808H192.53V48.9881Z" fill="#595857"/>
</g>
<defs>
<clipPath id="clip0_3854_192743">
<rect width="196" height="52" fill="white"/>
</clipPath>
</defs>
</svg>
