<svg width="300" height="25" viewBox="0 0 300 25" fill="none" xmlns="http://www.w3.org/2000/svg">
<g clip-path="url(#clip0_2011_7139)">
<path d="M24.8389 12.4175C24.8389 19.276 19.2799 24.8349 12.4214 24.8349C5.56289 24.8349 0 19.276 0 12.4175C0 5.55893 5.55893 0 12.4175 0C19.276 0 24.8349 5.55893 24.8349 12.4175" fill="#0080FF"/>
<path d="M7.35767 16.6648H4.28699L8.5384 7.8054H11.613L7.35767 16.6648Z" fill="white"/>
<path d="M20.0802 8.78412C19.9058 8.24527 19.4542 7.94018 19.1253 7.80943C18.9153 7.72622 18.7529 7.69849 18.7529 7.69849C18.5825 7.67075 18.4042 7.6549 18.2219 7.6549C17.4968 7.6549 16.8391 7.90056 16.3637 8.29281C16.1299 8.48696 15.9159 8.74846 15.7812 9.006L16.0427 9.19223C16.0823 9.12091 16.2091 8.95053 16.2606 8.89506C16.5301 8.60582 16.7995 8.46319 17.1165 8.49885C17.7385 8.56224 17.4453 9.21996 17.4453 9.21996L13.8675 16.6768H16.9936L19.6919 10.7771C20.0287 9.949 20.2902 9.45769 20.0762 8.79205" fill="white"/>
<path d="M10.5472 18.3171C10.1272 17.8099 9.89346 17.2116 9.77459 16.7441V16.7282C9.60026 15.8605 9.80629 15.1037 9.95685 14.656L9.96874 14.6322C10.0282 14.4856 10.0678 14.3747 10.1035 14.3113L10.3768 13.6813H10.3848L12.7938 8.51465C12.9879 8.03522 13.3564 6.58111 11.827 5.74905C9.65573 4.56436 7.15956 6.00263 5.89166 7.69052C5.01206 8.86332 4.80999 10.1946 4.80999 10.5433C4.80999 11.6844 5.53507 12.0965 5.53903 12.1083C5.65393 12.3104 5.41224 12.4174 5.32903 12.3619C5.31319 12.354 4.53264 11.9499 4.47717 10.7374C4.46132 10.4244 4.46132 10.052 4.57226 9.62406C4.9447 7.9441 6.06204 6.51771 7.57559 5.60641C7.67068 5.55094 7.76181 5.49547 7.8569 5.44396L7.89652 5.42415C8.51462 5.09529 9.18027 4.87341 9.8578 4.77436C11.6289 4.52078 13.4515 5.04378 14.6401 6.43847C15.0601 6.92978 15.2979 7.41713 15.4167 7.87278C15.6426 8.73653 15.4365 9.45368 15.2582 9.88556C15.1988 10.0401 15.1433 10.1827 15.1077 10.2501L13.297 14.03C13.297 14.03 12.9404 14.767 12.6868 15.3375C12.5996 15.5435 12.3738 16.1656 12.4055 16.9184C12.4966 17.6395 12.8413 18.5548 13.8596 19.0461C15.6862 19.9297 18.5706 19.1293 19.7315 16.9382C19.997 16.435 20.3655 15.5158 20.3655 14.6877C20.3655 13.5149 19.8029 12.984 19.7989 12.9721C19.684 12.7661 19.9257 12.6591 20.0129 12.7106C20.0287 12.7225 20.8172 13.5981 20.6508 15.2464C20.4606 16.6371 19.7672 18.3012 17.9367 19.3235C17.8416 19.3789 17.7544 19.4384 17.6593 19.4899L17.6197 19.5136C17.0016 19.8504 16.229 20.0485 15.5514 20.1357C15.3177 20.1674 15.0799 20.1833 14.8383 20.1833C13.297 20.1833 11.5853 19.5533 10.5591 18.321" fill="white"/>
<path d="M42.8588 3.62132V21.1579H40.6083V12.4372H38.7143V19.1253H31.7488V4.46923H38.7143V10.4283H40.6083V3.62132H42.8588ZM33.9043 17.0927H36.547V6.49786H33.9043V17.0927ZM46.4881 3.62132V21.1579H44.2574V3.62132H46.4881Z" fill="black"/>
<path d="M56.0608 4.46921V6.69992C56.0608 9.58042 55.1732 15.3216 48.4653 19.1491L47.0468 17.2948C52.1382 15.0046 53.6161 10.0757 53.5963 6.50181H47.7164V4.46921H56.0608ZM63.89 10.1113V12.1439H61.5444V21.1579H59.179V3.62131H61.5444V10.1113H63.89Z" fill="black"/>
<path d="M79.2989 17.8455V19.8781H63.9098V17.8455H79.2989ZM72.8088 4.64753C72.8088 6.79899 74.9603 10.6463 79.1602 11.6487L78.233 13.5624C75.2733 12.5164 72.5513 10.0916 71.5449 8.05896C70.5781 10.0717 68.1533 12.5758 65.4273 13.5624L64.3813 11.7081C68.4465 10.6819 70.3404 6.65635 70.3404 4.64753V4.13641H72.8049V4.64753H72.8088Z" fill="black"/>
<path d="M94.375 3.62131V21.1579H92.0294V18.4161C90.4128 18.8519 88.9508 18.947 87.3342 18.947H81.0819V4.46921H89.6838V6.50181H83.4513V10.4085H88.0078V12.4807H83.4513V16.8986H90.4921C91.2607 16.8986 92.0294 16.6014 92.0294 15.7337V12.4015H89.3668V10.3887H92.0294V3.62131H94.375Z" fill="black"/>
<path d="M110.295 3.62131V21.1579H107.949V18.4755C106.567 18.8123 105.62 18.951 104.34 18.951H97.1604V4.46921H105.386V6.50181H99.5258V16.8986H106.567C107.533 16.8986 107.949 16.4825 107.949 15.7931V3.62131H110.295Z" fill="black"/>
<path d="M120.973 11.2366C120.973 16.1497 119.689 18.3566 116.654 18.3566C113.619 18.3566 112.197 16.1457 112.197 11.2762C112.197 6.40672 113.599 4.17601 116.654 4.17601C119.709 4.17601 120.973 6.42653 120.973 11.2406V11.2366ZM118.802 11.2564C118.802 9.10496 118.485 6.03031 116.65 6.03031C114.816 6.03031 114.36 9.10892 114.36 11.2762C114.36 13.4435 114.796 16.4825 116.631 16.4825C118.465 16.4825 118.802 13.4237 118.802 11.2564ZM128.212 10.4838V12.5164H125.882V21.1579H123.572V3.62131H125.882V10.4878H128.212V10.4838Z" fill="black"/>
<path d="M136.972 4.46921V6.89406C136.972 9.85381 135.649 15.5158 128.965 19.3828L127.467 17.3899C130.367 16.0665 132.202 14.0537 133.268 11.9062H128.355V9.87362H134.036C134.373 8.72855 134.508 7.56367 134.508 6.50181H128.216V4.46921H136.976H136.972ZM144.29 10.1113V12.1439H141.945V21.1579H139.579V3.62131H141.945V10.1113H144.29Z" fill="black"/>
<path d="M155.123 3.62131V21.1579H152.773V18.5547C151.866 18.8321 150.84 18.9866 150.012 18.9866H144.766V4.46921H151.137V6.50181H147.112V16.9382H151.43C152.021 16.9382 152.773 16.7797 152.773 16.0308V12.3421H149.873V10.3293H152.773V3.62131H155.123ZM159.05 3.62131V21.1579H156.7V3.62131H159.05Z" fill="black"/>
<path d="M169.823 4.46921V18.733H161.478V4.46921H169.823ZM163.844 16.7203H167.473V6.50181H163.844V16.7203ZM174.617 3.62131V21.1579H172.271V3.62131H174.617Z" fill="black"/>
<path d="M199.032 11.2802L199.131 12.2906C198.061 12.5244 196.163 12.6868 193.873 12.7779V16.0943H192.625V12.8295C191.603 12.8651 190.481 12.8651 188.001 12.8651V11.7834C192.803 11.7834 195.644 11.8191 199.036 11.2802H199.032ZM197.78 7.52807V7.88862C197.78 9.56462 196.013 10.7018 193.382 10.7018C190.751 10.7018 189 9.56462 189 7.88862V7.52807C189 5.81641 190.751 4.66341 193.382 4.66341C196.013 4.66341 197.78 5.81641 197.78 7.52807ZM190.236 7.56372V7.85296C190.236 9.00596 191.615 9.72707 193.386 9.72707C195.157 9.72707 196.551 9.00596 196.551 7.85296V7.56372C196.551 6.37507 195.188 5.65396 193.386 5.65396C191.583 5.65396 190.236 6.37507 190.236 7.56372ZM191.484 15.0285V19.0857H202.55V20.1119H190.252V15.0285H191.484ZM201.869 4.35436V16.7203H200.621V14.9532H196.128V13.9626H200.621V4.35436H201.869Z" fill="black"/>
<path d="M218.11 4.35448V13.5507H216.877V11.4587H212.384V10.4126H216.877V8.03138H212.543C211.6 11.0981 208.909 12.8811 205.015 13.7805L204.595 12.679C208.585 11.74 211.525 9.77473 211.62 6.20878H205.276V5.14691H212.919V5.57879C212.903 6.08199 212.856 6.55349 212.788 6.98536H216.877V4.35448H218.11ZM216.862 20.5439V15.7497H206.152V14.7037H218.11V20.5439H216.862Z" fill="black"/>
<path d="M220.574 12.1639C220.752 12.1639 222.456 12.1837 222.619 12.1837V7.22706H223.851V12.1679C224.679 12.1481 225.943 12.1124 226.755 12.0609V7.23102H227.971V11.9896C228.784 11.9341 229.56 11.847 230.309 11.7202L230.408 12.675C227.761 13.0911 224.291 13.1981 220.574 13.1981V12.1718V12.1639ZM220.788 5.11522H230.004V6.17708H220.788V5.11522ZM227.944 14.3273H229.128C231.692 14.3273 234.628 14.8701 234.628 17.3029C234.628 19.7356 231.498 20.2586 229.128 20.2586H227.944C225.412 20.2586 222.46 19.7 222.46 17.3029C222.46 14.9057 225.527 14.3273 227.944 14.3273ZM227.829 19.1928H229.239C232.144 19.1928 233.392 18.543 233.392 17.2989C233.392 16.0548 232.144 15.4248 229.239 15.4248H227.829C224.909 15.4248 223.692 16.0389 223.692 17.2989C223.692 18.5589 224.94 19.1928 227.829 19.1928ZM234.355 4.35448V14.0182H233.106V10.9158H230.139V9.85398H233.106V7.96006H230.139V6.91404H233.106V4.35448H234.355Z" fill="black"/>
<path d="M241.296 4.77051V6.51783C241.296 9.13287 242.742 10.9357 244.688 11.8192L244.121 12.8098C242.433 11.9975 241.233 10.5909 240.714 9.14871C240.258 10.8604 238.848 12.4294 237.029 13.2931L236.462 12.3026C238.947 11.0585 240.064 9.25569 240.064 6.51387V4.76655H241.296V4.77051ZM244.038 14.3431H245.678C249.149 14.3431 251.277 15.2267 251.277 17.3187C251.277 19.4107 249.022 20.2943 245.694 20.2943H244.054C240.599 20.2943 238.471 19.3909 238.471 17.3187C238.471 15.2465 240.694 14.3431 244.038 14.3431ZM243.991 19.2483H245.758C248.694 19.2483 249.993 18.5628 249.993 17.3187C249.993 16.0746 248.694 15.3891 245.758 15.3891H243.991C241.023 15.3891 239.771 16.1103 239.771 17.3187C239.771 18.5272 241.055 19.2483 243.991 19.2483ZM246.974 4.53674V8.50288H249.847V4.35845H251.079V13.8399H249.847V9.52908H246.974V13.1703H245.789V4.53674H246.974Z" fill="black"/>
<path d="M253.009 18.7253V17.6792H256.84V11.1337H258.104V17.6792H261.091V11.1337H262.375V17.6792H268.346V18.7253H253.013H253.009ZM266.753 6.84269C266.753 9.67168 266.737 12.4848 266.056 14.9176C265.652 14.8463 265.244 14.7908 264.84 14.7353C265.311 13.0752 265.489 10.4641 265.489 7.9204V6.5693H254.407V5.50744H266.757V6.84269H266.753Z" fill="black"/>
<path d="M280.462 12.8295V15.1553H282.768V20.5439H281.52V16.1815H270.731V15.1553H273.358V12.8295H269.253V11.7835H284.587V12.8295H280.466H280.462ZM277.511 10.5236H276.263C273.227 10.5236 270.696 9.82226 270.696 7.58363C270.696 5.345 273.243 4.62785 276.263 4.62785H277.511C280.546 4.62785 283.093 5.34896 283.093 7.58363C283.093 9.81829 280.546 10.5236 277.511 10.5236ZM276.179 9.47755H277.606C279.571 9.47755 281.794 9.15265 281.794 7.58363C281.794 6.01461 279.571 5.68971 277.606 5.68971H276.179C274.198 5.68971 271.991 5.9948 271.991 7.58363C271.991 9.17246 274.198 9.47755 276.179 9.47755ZM274.622 15.1553H279.214V12.8295H274.622V15.1553Z" fill="black"/>
<path d="M296.477 11.2804L296.577 12.2907C295.507 12.5245 293.605 12.6869 291.319 12.7781V16.0944H290.071V12.8296C289.048 12.8652 287.927 12.8652 285.447 12.8652V11.7836C290.249 11.7836 293.09 11.8192 296.481 11.2804H296.477ZM295.229 7.52818V7.88874C295.229 9.56474 293.462 10.7019 290.831 10.7019C288.2 10.7019 286.449 9.56474 286.449 7.88874V7.52818C286.449 5.81652 288.2 4.66353 290.831 4.66353C293.462 4.66353 295.229 5.81652 295.229 7.52818ZM287.681 7.56384V7.85308C287.681 9.00607 289.06 9.72719 290.831 9.72719C292.602 9.72719 293.997 9.00607 293.997 7.85308V7.56384C293.997 6.37519 292.634 5.65407 290.831 5.65407C289.029 5.65407 287.681 6.37519 287.681 7.56384ZM288.933 15.0286V19.0858H300V20.112H287.701V15.0286H288.933ZM299.318 4.35448V16.7204H298.07V14.9533H293.577V13.9628H298.07V4.35448H299.318Z" fill="black"/>
<path d="M182.49 -6.24657e-05H181.59V24.8348H182.49V-6.24657e-05Z" fill="#0080FF"/>
</g>
<defs>
<clipPath id="clip0_2011_7139">
<rect width="300" height="24.8349" fill="white"/>
</clipPath>
</defs>
</svg>
