<?xml version="1.0" encoding="UTF-8"?><svg id="_레이어_2" xmlns="http://www.w3.org/2000/svg" viewBox="0 0 215.17 31.5"><defs><style>.cls-1{fill:#e4022d;}.cls-2{fill:#003763;}.cls-3,.cls-4{fill:#575756;}.cls-4{font-family:PretendardVariable-Medium, 'Pretendard Variable';font-size:12.88px;font-variation-settings:'wght' 500;font-weight:500;}</style></defs><g id="Layer_1"><text class="cls-4" transform="translate(89.6 12.26)"><tspan x="0" y="0">교육부 평가인정</tspan><tspan x="0" y="15.45">학점은행제 원격교육기관</tspan></text><path class="cls-2" d="M23.08,15.2c-2.6-1.76-5.92-1.04-7.67,1.61-1.46,2.22-3.66,2.49-4.51,2.49-2.78,0-4.68-1.95-5.24-3.98h0s0-.04-.02-.06c0-.02-.01-.04-.02-.07-.22-.84-.28-1.25-.28-2.14,0-4.84,4.96-10.22,12.11-10.22s11.5,5.57,12.58,8.67c-.02-.05-.04-.11-.05-.16C27.91,5.29,22.16.93,15.41.93,6.9.93,0,7.83,0,16.34c0,7.6,5.49,14.11,13.09,14.11,6.07,0,10.15-3.4,12.02-8.09,1.03-2.56.3-5.58-2.03-7.16Z"/><path class="cls-1" d="M30.13,11.81c-.9-3.02-5.12-8.97-12.68-8.97-7.15,0-12.11,5.38-12.11,10.22,0,.9.05,1.3.28,2.14-.09-.37-.14-.74-.14-1.1,0-5.03,5.04-8.52,10.22-8.52,7.02,0,12.7,5.69,12.7,12.7,0,5.5-3.16,10.26-7.76,12.55h0c5.93-2.14,10.16-7.82,10.16-14.49,0-1.58-.21-2.97-.68-4.53Z"/><path class="cls-3" d="M41.06,20.25v-3.82h1.45v3.82h2.06v-3.82h1.46v3.82h3.66v1.34h-11.32v-1.34h2.69ZM47.24,18.08v-5.91h-7.97v-1.37h9.5v7.28h-1.53Z"/><path class="cls-3" d="M62.61,18.73v3.8h-1.53v-2.49h-8.26v-1.31h1.96v-1.44s-2.58,0-2.58,0v-1.33h11.32v1.33h-2.61v1.44h1.7ZM60.9,12.71c0,.39-.08.75-.25,1.09-.17.34-.38.64-.65.91-.28.25-.6.45-.97.6-.37.15-.76.23-1.17.23s-.81-.08-1.18-.23c-.37-.15-.7-.35-.97-.6-.27-.27-.48-.57-.65-.91-.17-.34-.25-.7-.25-1.09s.08-.75.25-1.09c.17-.34.38-.64.65-.91.28-.26.6-.46.97-.61.37-.15.77-.23,1.18-.23s.81.08,1.17.23.69.36.97.61c.27.27.48.57.65.91.17.34.25.7.25,1.09ZM56.19,18.73h3.31v-1.44h-3.3v1.44ZM59.39,12.71c0-.41-.15-.77-.45-1.06-.3-.29-.66-.44-1.08-.44s-.79.15-1.09.44c-.3.29-.46.64-.46,1.06s.15.77.46,1.06c.3.29.67.44,1.09.44s.79-.15,1.08-.44c.3-.29.45-.65.45-1.06Z"/><path class="cls-3" d="M66.17,17.96h11.32v1.35h-4.9v3.18h-1.53v-3.18h-4.89v-1.35ZM68.59,11.94h6.47v-1.56h1.52v5.92h-9.5v-5.92h1.51v1.56ZM75.06,13.27h-6.47v1.7h6.47v-1.7Z"/></g></svg>