<svg width="10" height="11" viewBox="0 0 10 11" fill="none" xmlns="http://www.w3.org/2000/svg">
<path d="M0 6.84497V3.17448C0.00674576 3.14809 0.0178564 3.1219 0.0198405 3.09511C0.0279751 2.97429 0.0349196 2.85326 0.0400782 2.73223C0.0541649 2.39237 0.130154 2.06599 0.247411 1.74735C0.415262 1.29102 0.70037 0.919606 1.07932 0.623785C1.52097 0.278957 2.0398 0.118844 2.58859 0.0642832C2.93421 0.0299591 3.2836 0.0325384 3.6314 0.0212293C3.75362 0.0172612 3.87584 0.0218245 3.99806 0.0196421C4.02802 0.0190469 4.05758 0.00694417 4.08734 0H5.91266C5.9325 0.00674576 5.95215 0.0192453 5.97218 0.0196421C6.30451 0.0273799 6.63704 0.0281735 6.96917 0.0422602C7.19356 0.0517837 7.41776 0.074997 7.64097 0.10079C7.95564 0.137098 8.25384 0.238483 8.53319 0.381532C8.83318 0.535098 9.09369 0.743423 9.31273 1.00591C9.50915 1.24102 9.65577 1.50014 9.76211 1.78485C9.92461 2.22035 9.97679 2.6735 9.98036 3.1348C9.98056 3.17448 9.99306 3.21416 10 3.25384V6.78544C9.99325 6.79874 9.98135 6.81163 9.98056 6.82513C9.97262 6.97254 9.97103 7.12035 9.95853 7.26717C9.94326 7.44534 9.93492 7.62628 9.89544 7.79949C9.76608 8.36673 9.52522 8.87246 9.07801 9.26848C8.81076 9.50518 8.51494 9.68394 8.18023 9.79981C7.74176 9.95159 7.28701 9.9996 6.82552 9.9996C6.78584 9.9996 6.74616 10.0123 6.70648 10.0192H3.29392C3.27408 10.0125 3.25463 10.001 3.2344 9.9994C2.95425 9.97857 2.67311 9.96647 2.39395 9.9373C2.09932 9.90655 1.81838 9.81667 1.55053 9.69148C1.22237 9.53811 0.942423 9.32225 0.701956 9.04805C0.523194 8.84409 0.384707 8.61831 0.282528 8.37229C0.0916628 7.91338 0.0180552 7.43006 0.0202377 6.93405C0.0202377 6.90429 0.00753996 6.87453 0.000595796 6.84477L0 6.84497ZM6.67771 9.10738C6.67791 9.1042 6.67831 9.10103 6.67851 9.09805C6.88723 9.08138 7.09595 9.06432 7.30467 9.04825C7.60962 9.02464 7.89691 8.9429 8.16436 8.7933C8.458 8.62902 8.67704 8.39094 8.82663 8.09353C8.96056 7.82747 9.01968 7.5366 9.04488 7.24237C9.06988 6.95171 9.08555 6.65906 9.08516 6.36741C9.08416 5.38669 9.07325 4.40617 9.06789 3.42546C9.06611 3.09472 9.0544 2.76576 8.98972 2.43959C8.9185 2.08047 8.77148 1.76144 8.51296 1.50034C8.28578 1.27078 8.00564 1.13408 7.69593 1.05016C7.31658 0.947383 6.92572 0.94024 6.53962 0.937264C5.45336 0.928733 4.36689 0.947185 3.28043 0.950557C2.97865 0.951549 2.67926 0.967223 2.38423 1.0319C1.9402 1.12952 1.5674 1.33943 1.30114 1.72017C1.08012 2.03603 0.984684 2.39494 0.95532 2.76894C0.924964 3.15523 0.920202 3.54371 0.913258 3.93139C0.906711 4.29169 0.907702 4.6522 0.912662 5.0125C0.922781 5.72418 0.936272 6.43566 0.952343 7.14714C0.959287 7.45466 1.02278 7.75009 1.14698 8.0344C1.3055 8.39748 1.56899 8.66057 1.91203 8.84032C2.18126 8.98139 2.47986 9.04151 2.78124 9.06492C3.09849 9.08952 3.41733 9.1038 3.73557 9.10539C4.71608 9.11035 5.6968 9.10718 6.67751 9.10718L6.67771 9.10738Z" fill="white"/>
<path fill-rule="evenodd" clip-rule="evenodd" d="M2.4211 5.02089C2.41574 3.60785 3.56629 2.38072 5.11504 2.44163C6.42669 2.49321 7.60918 3.56777 7.57446 5.08359C7.54312 6.45417 6.45209 7.60908 4.95671 7.59281C3.56669 7.57793 2.42864 6.46766 2.4209 5.02069L2.4211 5.02089ZM6.64712 5.01732C6.66041 4.09652 5.89993 3.35032 4.99599 3.35885C4.05536 3.36758 3.34328 4.09017 3.3407 5.01831C3.33832 5.91391 4.03532 6.61686 4.90374 6.66765C5.89953 6.72618 6.67708 5.88812 6.64732 5.01732H6.64712Z" fill="white"/>
<path fill-rule="evenodd" clip-rule="evenodd" d="M7.06371 2.34905C7.02502 2.04132 7.34743 1.72169 7.69186 1.73895C7.98252 1.75363 8.28588 2.01533 8.27656 2.3677C8.26862 2.6661 8.00058 2.96668 7.65277 2.95835C7.35576 2.9512 7.03494 2.68772 7.06391 2.34905H7.06371Z" fill="white"/>
</svg>
